<?xml version="1.0" encoding="UTF-8"?>
<svg width="98px" height="98px" viewBox="0 0 98 98" version="1.1" xmlns="http://www.w3.org/2000/svg" xmlns:xlink="http://www.w3.org/1999/xlink">
    <!-- Generator: sketchtool 52.5 (67469) - http://www.bohemiancoding.com/sketch -->
    <title>BFDD5F18-91DA-47E8-AFAB-5194EDAD48AF</title>
    <desc>Created with sketchtool.</desc>
    <defs>
        <polygon id="path-1" points="0 0.0715129854 73.2292302 0.0715129854 73.2292302 73.30081 0 73.30081"></polygon>
    </defs>
    <g id="Ready-For-Upload" stroke="none" stroke-width="1" fill="none" fill-rule="evenodd">
        <g id="Customer-Desktop" transform="translate(-181.000000, -134.000000)">
            <g id="Customer-Symbol" transform="translate(181.000000, 134.000000)">
                <g id="Group-8">
                    <g id="Group-3" transform="translate(0.000000, 24.699187)">
                        <mask id="mask-2" fill="white">
                            <use xlink:href="#path-1"></use>
                        </mask>
                        <g id="Clip-2"></g>
                        <path d="M73.2292255,66.7609475 C66.0457462,70.9194276 57.7073321,73.30081 48.807541,73.30081 C21.8507212,73.30081 -7.15129876e-05,51.4500173 -7.15129876e-05,24.4931975 C-7.15129876e-05,15.5934065 2.3813109,7.25499237 6.539791,0.0715129854 L20.5098527,14.0415747 C19.2691024,17.3490503 18.5933047,20.9318508 18.5933047,24.67198 C18.5933047,41.4560776 32.2022258,55.0649988 48.9863235,55.0649988 C52.7264526,55.0649988 56.3092532,54.389201 59.6167288,53.1484507 L73.2292255,66.7609475 Z" id="Fill-1" fill="#1072B1" mask="url(#mask-2)"></path>
                    </g>
                    <path d="M98,49.1601286 C98,57.9333208 95.7022592,66.1698933 91.6758106,73.300813 L77.8965687,59.5215711 C79.0202287,56.3378675 79.6324794,52.9092637 79.6324794,49.3402023 C79.6324794,32.4348805 65.925267,18.727668 49.0199451,18.727668 C45.4508838,18.727668 42.0222799,19.3399187 38.8385764,20.4635788 L24.699187,6.32418944 C31.8301067,2.29774081 40.0666792,0 48.8398714,0 C75.9913886,0 98,22.0086114 98,49.1601286" id="Fill-4" fill="#1072B1"></path>
                    <path d="M56.2926829,54.822389 L62.1463415,60.0625391 C60.5667828,62.0249435 58.5834003,63.5276856 56.1997677,64.5672295 C53.8947557,65.5749507 51.3217189,66.0943691 48.4735102,66.1265454 C48.369874,66.1300813 48.2662378,66.1300813 48.1626016,66.1300813 C44.753328,66.1300813 41.6942732,65.4193727 38.9854373,63.9944196 C36.2766014,62.5694665 34.1466988,60.5858469 32.5993031,58.040025 C31.0483338,55.497739 30.2764228,52.61601 30.2764228,49.398374 C30.2764228,48.9811421 30.2907174,48.567446 30.315733,48.1608217 C30.4908425,45.4382066 31.2484589,42.9701737 32.5993031,40.756723 C34.1466988,38.2144369 36.2766014,36.2308173 38.9854373,34.8058642 C41.6942732,33.3809111 44.753328,32.6666667 48.1626016,32.6666667 C49.2275529,32.6666667 50.2567676,32.7338481 51.246672,32.8682109 C53.0192084,33.1086496 54.6702403,33.5612402 56.1997677,34.2295184 C58.5834003,35.2725983 60.5667828,36.7753404 62.1463415,38.7342089 L59.5375681,41.0714148 L56.2926829,43.974359 C54.1842223,41.4638957 51.6290539,40.2051282 48.6271777,40.2051282 C46.8617886,40.2051282 45.2893773,40.5905374 43.9099437,41.3542839 C42.5305101,42.1215664 41.4619852,43.2000048 40.7043688,44.596671 C39.9467524,45.9898013 39.5679443,47.5915476 39.5679443,49.398374 C39.5679443,51.2087362 39.9467524,52.8104825 40.7043688,54.2036128 C41.4619852,55.5967432 42.5305101,56.6787175 43.9099437,57.442464 C45.2893773,58.2097465 46.8617886,58.5916198 48.6271777,58.5916198 C51.6290539,58.5916198 54.1842223,57.3363881 56.2926829,54.822389" id="Fill-6" fill="#1072B1"></path>
                </g>
            </g>
        </g>
    </g>
</svg>